<?xml version="1.0" standalone="no"?>
<!DOCTYPE svg PUBLIC "-//W3C//DTD SVG 1.1//EN" "http://www.w3.org/Graphics/SVG/1.1/DTD/svg11.dtd" >
<svg>
<metadata>
Created by FontForge 20120731 at Tue Jul  2 03:36:14 2019
 By www
Copyright 1990-1999 as an unpublished work by Bitstream Inc.  All rights reserved.  Confidential.
</metadata>
<defs>
<font id="BankGothicBT-Medium" horiz-adv-x="500" >
  <font-face 
    font-family="Bank Gothic"
    font-weight="500"
    font-stretch="normal"
    units-per-em="1000"
    panose-1="0 0 0 0 0 0 0 0 0 0"
    ascent="800"
    descent="-200"
    x-height="423"
    cap-height="516"
    bbox="-167 -236 1242 800"
    underline-thickness="70"
    underline-position="-48"
    stemh="78"
    stemv="93"
    unicode-range="U+0020-FB02"
  />
<missing-glyph horiz-adv-x="387" 
 />
    <glyph glyph-name=".notdef" horiz-adv-x="387" 
 />
    <glyph glyph-name="space" unicode=" " horiz-adv-x="387" 
 />
    <glyph glyph-name="exclam" unicode="!" horiz-adv-x="384" 
d="M151 210l-37 306h154l-37 -306h-80zM226 143h17c21 0 25 -10 25 -34v-75c0 -34 -9 -34 -42 -34h-88c-21 0 -25 10 -25 34v75c0 34 9 34 42 34h71z" />
    <glyph glyph-name="quotedbl" unicode="&#x22;" horiz-adv-x="300" 
d="M112 701v-271h-68v271h68zM256 701v-271h-68v271h68z" />
    <glyph glyph-name="numbersign" unicode="#" horiz-adv-x="769" 
d="M451 712l-79 -222h125l80 222h80l-78 -222h147l-25 -71h-148l-45 -129h157l-25 -71h-157l-79 -221h-81l79 221h-126l-79 -221h-81l78 221h-151l26 71h151l45 129h-161l25 71h162l79 222h81zM473 419h-127l-45 -129h127z" />
    <glyph glyph-name="dollar" unicode="$" horiz-adv-x="773" 
d="M572 442h-137v-137h112c97 0 129 -25 129 -122v-61c0 -97 -32 -122 -129 -122h-112v-130h-83v130h-127c-89 0 -128 23 -128 108v22l100 17v-69h155v137h-107c-97 0 -128 25 -128 122v57c0 97 31 122 128 122h107v102h83v-102h103c88 0 128 -24 128 -101v-23l-94 -21v71z
M352 305v137h-144v-137h144zM435 78h149v137h-149v-137z" />
    <glyph glyph-name="percent" unicode="%" horiz-adv-x="799" 
d="M44 380c0 86 68 152 154 152s153 -67 153 -152c0 -84 -71 -155 -153 -155c-83 0 -154 71 -154 155zM112 378c0 -46 38 -85 85 -85c48 0 86 38 86 85s-39 86 -86 86c-46 0 -85 -40 -85 -86zM515 137c0 -46 38 -85 85 -85c48 0 86 38 86 85s-39 86 -86 86
c-46 0 -85 -40 -85 -86zM447 138c0 86 67 153 153 153s154 -68 154 -153c0 -84 -72 -154 -154 -154c-83 0 -153 70 -153 154zM649 532l-435 -548h-65l435 548h65z" />
    <glyph glyph-name="ampersand" unicode="&#x26;" horiz-adv-x="824" 
d="M219 0c-97 0 -129 25 -129 122v34c0 53 19 69 64 96l105 63c-30 25 -44 48 -44 78v29c0 74 40 94 128 94h104c93 0 128 -20 128 -104v-31l-93 -16v69h-169v-37l243 -202l120 100l68 -59l-119 -99l163 -137h-157l-85 72l-46 -41c-33 -29 -54 -31 -97 -31h-184zM191 90h239
l48 41l-155 129l-132 -82v-88z" />
    <glyph glyph-name="quoteright" unicode="&#x2019;" horiz-adv-x="331" 
d="M201 516h17c20 0 24 -12 24 -37v-103l-99 -148h-59l85 152h-57c-20 0 -24 12 -24 37v62c0 37 7 37 41 37h72z" />
    <glyph glyph-name="parenleft" unicode="(" horiz-adv-x="331" 
d="M169 536h107c-65 -97 -97 -188 -97 -278s32 -181 97 -278h-107c-58 90 -86 183 -86 278s28 188 86 278z" />
    <glyph glyph-name="parenright" unicode=")" horiz-adv-x="331" 
d="M162 536c58 -90 87 -183 87 -278s-29 -188 -87 -278h-107c65 97 97 188 97 278s-32 181 -97 278h107z" />
    <glyph glyph-name="asterisk" unicode="*" 
d="M250 321l-66 -120l-59 43l94 100l-133 26l22 68l123 -59l-14 137h66l-15 -137l123 59l23 -68l-134 -26l94 -100l-58 -43z" />
    <glyph glyph-name="plus" unicode="+" horiz-adv-x="833" 
d="M451 596v-264h258v-68h-258v-264h-69v264h-258v68h258v264h69z" />
    <glyph glyph-name="comma" unicode="," horiz-adv-x="331" 
d="M201 155h17c20 0 24 -12 24 -37v-103l-99 -148h-59l85 152h-57c-20 0 -24 12 -24 37v62c0 37 7 37 41 37h72z" />
    <glyph glyph-name="hyphen" unicode="-" horiz-adv-x="330" 
d="M48 215v103h233v-103h-233z" />
    <glyph glyph-name="period" unicode="." horiz-adv-x="331" 
d="M201 155h18c20 0 24 -12 24 -37v-81c0 -37 -8 -37 -42 -37h-89c-20 0 -24 12 -24 37v81c0 37 8 37 42 37h71z" />
    <glyph glyph-name="slash" unicode="/" horiz-adv-x="278" 
d="M-24 -16l260 548h66l-262 -548h-64z" />
    <glyph glyph-name="zero" unicode="0" horiz-adv-x="773" 
d="M94 394c0 95 27 122 118 122h349c91 0 118 -27 118 -122v-272c0 -95 -27 -122 -118 -122h-349c-91 0 -118 27 -118 122v272zM202 93h369v335h-369v-335z" />
    <glyph glyph-name="one" unicode="1" horiz-adv-x="773" 
d="M354 0v418h-110v69l219 33v-520h-109z" />
    <glyph glyph-name="two" unicode="2" horiz-adv-x="773" 
d="M140 415c0 82 30 101 118 101h265c88 0 118 -19 118 -101v-33c0 -60 -18 -75 -67 -105l-303 -184h300v76l95 -27v-41c0 -82 -30 -101 -118 -101h-434v47c0 35 4 56 65 94l357 220v67h-294v-106l-102 26v67z" />
    <glyph glyph-name="three" unicode="3" horiz-adv-x="773" 
d="M228 0c-88 0 -118 19 -118 101v42l106 22v-72h278c40 0 50 9 50 46v38c0 37 -10 47 -50 47h-174v84h155c40 0 49 10 49 47v26c0 37 -9 47 -49 47h-255v-64l-102 19v32c0 82 30 101 118 101h279c88 0 118 -19 118 -101v-47c0 -61 -26 -86 -100 -98c82 -8 120 -40 120 -105
v-54c0 -80 -26 -111 -125 -111h-300z" />
    <glyph glyph-name="four" unicode="4" horiz-adv-x="773" 
d="M472 200v231l-282 -231h282zM472 -6v120h-391v86l387 322h113v-322h125v-86h-125v-120h-109z" />
    <glyph glyph-name="five" unicode="5" horiz-adv-x="773" 
d="M130 230l29 286h446l-9 -88h-360l-12 -100c79 8 148 13 209 13c170 0 256 -58 256 -175c0 -125 -91 -173 -284 -173c-111 0 -194 8 -249 21l-26 100c94 -17 184 -27 272 -27c122 0 176 20 176 84c0 61 -55 80 -169 80c-71 0 -164 -6 -279 -21z" />
    <glyph glyph-name="six" unicode="6" horiz-adv-x="773" 
d="M230 311c72 11 148 18 228 18c158 0 218 -28 218 -133v-70c0 -87 -57 -126 -177 -126h-218c-128 0 -170 36 -170 159v68c0 192 139 302 381 302c12 0 25 -1 37 -2l71 -83h-33c-192 0 -298 -24 -337 -133zM223 233c-2 -12 -2 -22 -2 -30c0 -90 8 -110 107 -110h144
c74 0 94 16 94 62v28c0 51 -27 62 -114 62c-73 0 -150 -4 -229 -12z" />
    <glyph glyph-name="seven" unicode="7" horiz-adv-x="773" 
d="M278 -9l278 437h-341v-111l-109 19v180h573v-83l-270 -442h-131z" />
    <glyph glyph-name="eight" unicode="8" horiz-adv-x="773" 
d="M518 224h-264c-40 0 -49 -10 -49 -47v-38c0 -38 9 -46 49 -46h264c40 0 49 9 49 46v38c0 37 -9 47 -49 47zM507 428h-241c-40 0 -50 -10 -50 -47v-26c0 -37 10 -47 50 -47h241c40 0 49 10 49 47v26c0 37 -9 47 -49 47zM547 516c88 0 118 -19 118 -101v-47
c0 -60 -26 -86 -99 -100c75 -8 111 -40 111 -103v-54c0 -80 -27 -111 -126 -111h-330c-99 0 -125 31 -125 111v54c0 63 36 95 110 103c-72 14 -99 40 -99 100v47c0 82 30 101 118 101h322z" />
    <glyph glyph-name="nine" unicode="9" horiz-adv-x="773" 
d="M559 284c2 12 3 23 3 31c0 93 -9 113 -108 113h-143c-74 0 -95 -16 -95 -64v-29c0 -53 28 -64 115 -64c62 0 139 4 228 13zM553 205c-72 -11 -148 -17 -228 -17c-158 0 -218 28 -218 133v69c0 87 56 126 176 126h218c128 0 170 -36 170 -159v-68
c0 -192 -139 -301 -381 -301c-12 0 -25 0 -37 1l-71 83h33c192 0 299 24 338 133z" />
    <glyph glyph-name="colon" unicode=":" horiz-adv-x="331" 
d="M201 155h18c20 0 24 -12 24 -37v-81c0 -37 -8 -37 -42 -37h-89c-20 0 -24 12 -24 37v81c0 37 8 37 42 37h71zM201 424h18c20 0 24 -12 24 -37v-81c0 -37 -8 -37 -42 -37h-89c-20 0 -24 12 -24 37v81c0 37 8 37 42 37h71z" />
    <glyph glyph-name="semicolon" unicode=";" horiz-adv-x="331" 
d="M201 155h17c20 0 24 -12 24 -37v-103l-99 -148h-59l85 152h-57c-20 0 -24 12 -24 37v62c0 37 7 37 41 37h72zM201 424h17c20 0 24 -12 24 -37v-81c0 -37 -7 -37 -41 -37h-89c-20 0 -24 12 -24 37v81c0 37 7 37 41 37h72z" />
    <glyph glyph-name="less" unicode="&#x3c;" horiz-adv-x="833" 
d="M704 491l-473 -193l473 -192v-75l-575 236v63l575 236v-75z" />
    <glyph glyph-name="equal" unicode="=" horiz-adv-x="833" 
d="M709 429v-68h-585v68h585zM709 235v-68h-585v68h585z" />
    <glyph glyph-name="greater" unicode="&#x3e;" horiz-adv-x="833" 
d="M704 330v-63l-575 -236v75l474 192l-474 193v75z" />
    <glyph glyph-name="question" unicode="?" horiz-adv-x="662" 
d="M264 209v72l173 105v45h-230v-65l-101 16v28c0 71 36 106 108 106h204c83 0 124 -30 124 -96v-82l-175 -102v-27h-103zM350 143h17c21 0 24 -10 24 -34v-75c0 -34 -8 -34 -41 -34h-88c-21 0 -25 10 -25 34v75c0 34 8 34 41 34h72z" />
    <glyph glyph-name="at" unicode="@" horiz-adv-x="1000" 
d="M581 232l29 115c-11 58 -46 90 -97 90c-90 0 -159 -97 -159 -219c0 -69 33 -107 91 -107c62 0 118 48 136 121zM627 417l28 56h64l-71 -281c-3 -12 -4 -22 -4 -29c0 -30 17 -46 49 -46c30 0 67 17 102 50c51 48 83 123 83 205c0 166 -132 284 -337 284
c-86 0 -159 -18 -223 -56c-124 -74 -196 -200 -196 -346c0 -115 39 -198 124 -263c63 -48 154 -78 256 -78c110 0 217 33 303 93l27 -40c-97 -73 -206 -109 -324 -109c-125 0 -228 31 -307 91c-100 77 -149 178 -149 307c0 107 34 205 99 284c94 115 230 177 394 177
c111 0 209 -33 275 -84c84 -65 129 -152 129 -251c0 -114 -42 -207 -121 -269c-45 -36 -100 -55 -154 -55c-65 0 -98 26 -98 77v9c-36 -58 -83 -85 -147 -85c-99 0 -153 57 -153 162c0 155 103 270 233 270c56 0 95 -25 118 -73z" />
    <glyph glyph-name="A" unicode="A" horiz-adv-x="771" 
d="M33 0l292 516h116l296 -516h-135l-62 113h-327l-60 -113h-120zM264 206h226l-111 210z" />
    <glyph glyph-name="B" unicode="B" horiz-adv-x="794" 
d="M132 0v516h442c79 0 116 -28 116 -100v-63c0 -50 -32 -80 -89 -87c60 -8 93 -44 93 -99v-66c0 -69 -51 -101 -152 -101h-410zM524 224h-274v-131h274c41 0 58 8 58 46v39c0 38 -17 46 -58 46zM524 432h-274v-123h274c37 0 55 7 55 37v49c0 30 -18 37 -55 37z" />
    <glyph glyph-name="C" unicode="C" horiz-adv-x="801" 
d="M565 424h-324v-327h324v111l120 -25v-61c0 -97 -31 -122 -128 -122h-308c-97 0 -128 25 -128 122v272c0 97 31 122 128 122h308c97 0 128 -25 128 -122v-49l-120 -19v98z" />
    <glyph glyph-name="D" unicode="D" horiz-adv-x="847" 
d="M132 0v516h332c193 0 295 -95 295 -255c0 -97 -42 -177 -114 -221c-50 -31 -120 -40 -212 -40h-301zM252 97h155c152 0 228 38 228 166c0 105 -57 161 -170 161h-213v-327z" />
    <glyph glyph-name="E" unicode="E" horiz-adv-x="755" 
d="M132 0v516h528v-88h-408v-115h238v-88h-238v-128h413v-97h-533z" />
    <glyph glyph-name="F" unicode="F" horiz-adv-x="671" 
d="M132 0v516h522v-90h-402v-136h217v-94h-217v-196h-120z" />
    <glyph glyph-name="G" unicode="G" horiz-adv-x="855" 
d="M616 424h-375v-327h375v115h-196v88h313v-178c0 -97 -31 -122 -128 -122h-356c-97 0 -128 25 -128 122v272c0 97 31 122 128 122h356c94 0 128 -24 128 -117v-12l-117 -21v58z" />
    <glyph glyph-name="H" unicode="H" horiz-adv-x="880" 
d="M132 0v516h120v-200h375v200h121v-516h-121v222h-375v-222h-120z" />
    <glyph glyph-name="I" unicode="I" horiz-adv-x="384" 
d="M132 0v516h120v-516h-120z" />
    <glyph glyph-name="J" unicode="J" horiz-adv-x="667" 
d="M207 0c-97 0 -128 25 -128 122v107l121 23v-155h236v419h120v-394c0 -97 -31 -122 -128 -122h-221z" />
    <glyph glyph-name="K" unicode="K" horiz-adv-x="794" 
d="M132 0v516h121v-215l286 215h174l-342 -243l384 -273h-193l-309 227v-227h-121z" />
    <glyph glyph-name="L" unicode="L" horiz-adv-x="683" 
d="M132 0v516h120v-419h387v-97h-507z" />
    <glyph glyph-name="M" unicode="M" horiz-adv-x="926" 
d="M131 0v516h97l243 -312l238 312h96v-516h-111v319c0 10 1 28 4 55c-11 -23 -21 -42 -30 -54l-194 -258h-24l-194 259c-12 16 -23 33 -31 53c2 -21 3 -38 3 -55v-319h-97z" />
    <glyph glyph-name="N" unicode="N" horiz-adv-x="869" 
d="M131 0v516h82l363 -304c21 -17 41 -35 59 -56c-3 43 -5 73 -5 89v271h108v-516h-82l-379 319c-15 13 -29 26 -43 42c4 -40 5 -67 5 -82v-279h-108z" />
    <glyph glyph-name="O" unicode="O" horiz-adv-x="878" 
d="M241 97h396v327h-396v-327zM121 394c0 97 31 122 128 122h380c97 0 128 -25 128 -122v-272c0 -97 -31 -122 -128 -122h-380c-97 0 -128 25 -128 122v272z" />
    <glyph glyph-name="P" unicode="P" horiz-adv-x="743" 
d="M132 0v516h441c80 0 117 -28 117 -100v-115c0 -72 -37 -100 -117 -100h-323v-201h-118zM520 427h-270v-137h270c37 0 54 7 54 41v55c0 34 -17 41 -54 41z" />
    <glyph glyph-name="Q" unicode="Q" horiz-adv-x="878" 
d="M241 97h177l-48 112l87 35l70 -147h110v327h-396v-327zM121 394c0 97 31 122 128 122h380c97 0 128 -25 128 -122v-272c0 -97 -31 -122 -128 -122h-56l65 -133h-119l-58 133h-212c-97 0 -128 25 -128 122v272z" />
    <glyph glyph-name="R" unicode="R" horiz-adv-x="802" 
d="M132 0v516h441c80 0 117 -28 117 -100v-121c0 -72 -37 -100 -117 -100h-67l238 -195h-172l-208 195h-114v-195h-118zM520 427h-270v-144h270c37 0 54 7 54 41v62c0 34 -17 41 -54 41z" />
    <glyph glyph-name="S" unicode="S" horiz-adv-x="809" 
d="M579 426h-338v-111h322c97 0 129 -25 129 -122v-71c0 -97 -32 -122 -129 -122h-319c-97 0 -129 25 -129 122v14l106 22v-61h365v118h-322c-97 0 -128 25 -128 122v57c0 97 31 122 128 122h293c92 0 128 -24 128 -113v-11l-106 -25v59z" />
    <glyph glyph-name="T" unicode="T" horiz-adv-x="625" 
d="M372 424v-424h-120v424h-237v92h595v-92h-238z" />
    <glyph glyph-name="U" unicode="U" horiz-adv-x="846" 
d="M252 516v-419h342v419h120v-394c0 -97 -31 -122 -128 -122h-326c-97 0 -128 25 -128 122v394h120z" />
    <glyph glyph-name="V" unicode="V" horiz-adv-x="681" 
d="M306 0l-298 516h137l209 -373l199 373h120l-284 -516h-83z" />
    <glyph glyph-name="W" unicode="W" horiz-adv-x="926" 
d="M238 0l-199 516h124l131 -346l137 346h84l140 -346l125 346h107l-199 -516h-81l-142 357l-144 -357h-83z" />
    <glyph glyph-name="X" unicode="X" horiz-adv-x="718" 
d="M53 0l245 265l-249 251h159l165 -175l157 175h138l-225 -237l278 -279h-163l-189 200l-174 -200h-142z" />
    <glyph glyph-name="Y" unicode="Y" horiz-adv-x="672" 
d="M276 0v231l-268 285h160l177 -198l178 198h141l-267 -282v-234h-121z" />
    <glyph glyph-name="Z" unicode="Z" horiz-adv-x="682" 
d="M61 0v56l361 368h-325v92h518v-51l-366 -368h366v-97h-554z" />
    <glyph glyph-name="bracketleft" unicode="[" horiz-adv-x="331" 
d="M315 -16h-221v548h221v-71h-125v-403h125v-74z" />
    <glyph glyph-name="backslash" unicode="\" horiz-adv-x="278" 
d="M42 532l260 -548h-64l-262 548h66z" />
    <glyph glyph-name="bracketright" unicode="]" horiz-adv-x="331" 
d="M16 -16v74h125v403h-125v71h221v-548h-221z" />
    <glyph glyph-name="asciicircum" unicode="^" horiz-adv-x="1000" 
d="M545 712l249 -272h-88l-206 205l-207 -205h-88l249 272h91z" />
    <glyph glyph-name="underscore" unicode="_" 
d="M500 -166v-70h-500v70h500z" />
    <glyph glyph-name="quoteleft" unicode="&#x2018;" horiz-adv-x="331" 
d="M130 228h-17c-20 0 -24 12 -24 37v103l99 148h59l-85 -152h57c20 0 24 -12 24 -37v-62c0 -37 -7 -37 -41 -37h-72z" />
    <glyph glyph-name="a" unicode="a" horiz-adv-x="646" 
d="M230 170h194l-99 176zM30 0l251 423h99l255 -423h-116l-53 93h-280l-53 -93h-103z" />
    <glyph glyph-name="b" unicode="b" horiz-adv-x="657" 
d="M427 184h-231v-108h231c35 0 50 7 50 38v32c0 31 -15 38 -50 38zM427 354h-231v-100h231c31 0 46 5 46 30v40c0 25 -14 30 -46 30zM94 0v423h380c68 0 100 -22 100 -82v-51c0 -39 -26 -64 -72 -72c48 -8 75 -38 75 -81v-54c0 -56 -44 -83 -131 -83h-352z" />
    <glyph glyph-name="c" unicode="c" horiz-adv-x="644" 
d="M465 345h-278v-264h278v90l104 -21v-50c0 -79 -27 -100 -111 -100h-264c-85 0 -110 22 -110 100v223c0 79 26 100 110 100h264c84 0 111 -20 111 -100v-41l-104 -15v78z" />
    <glyph glyph-name="d" unicode="d" horiz-adv-x="694" 
d="M94 0v423h285c167 0 254 -79 254 -210c0 -143 -94 -213 -280 -213h-259zM198 79h133c131 0 196 29 196 139c0 88 -49 129 -147 129h-182v-268z" />
    <glyph glyph-name="e" unicode="e" horiz-adv-x="608" 
d="M94 0v423h454v-75h-350v-92h204v-73h-204v-104h355v-79h-459z" />
    <glyph glyph-name="f" unicode="f" horiz-adv-x="550" 
d="M94 0v423h449v-76h-345v-110h186v-79h-186v-158h-104z" />
    <glyph glyph-name="g" unicode="g" horiz-adv-x="692" 
d="M509 345h-322v-264h322v90h-168v75h269v-146c0 -79 -26 -100 -110 -100h-306c-84 0 -110 21 -110 100v223c0 80 27 100 110 100h306c80 0 110 -19 110 -95v-11l-101 -17v45z" />
    <glyph glyph-name="h" unicode="h" horiz-adv-x="718" 
d="M94 0v423h104v-161h322v161h103v-423h-103v178h-322v-178h-104z" />
    <glyph glyph-name="i" unicode="i" horiz-adv-x="291" 
d="M94 0v423h103v-423h-103z" />
    <glyph glyph-name="j" unicode="j" horiz-adv-x="560" 
d="M166 0c-84 0 -111 21 -111 100v88l104 19v-128h202v344h104v-323c0 -79 -27 -100 -111 -100h-188z" />
    <glyph glyph-name="k" unicode="k" horiz-adv-x="620" 
d="M94 0v423h104v-171l247 171h149l-292 -196l325 -227h-163l-266 191v-191h-104z" />
    <glyph glyph-name="l" unicode="l" horiz-adv-x="552" 
d="M94 0v423h104v-344h332v-79h-436z" />
    <glyph glyph-name="m" unicode="m" horiz-adv-x="767" 
d="M94 0v423h83l207 -251l206 251h83v-423h-96v291l-189 -240h-20l-191 233v-284h-83z" />
    <glyph glyph-name="n" unicode="n" horiz-adv-x="712" 
d="M94 0v423h71l359 -281v281h93v-423h-71l-358 285v-285h-94z" />
    <glyph glyph-name="o" unicode="o" horiz-adv-x="715" 
d="M84 323c0 81 27 100 110 100h327c83 0 110 -19 110 -100v-223c0 -80 -27 -100 -110 -100h-327c-84 0 -110 20 -110 100v223zM187 81h341v264h-341v-264z" />
    <glyph glyph-name="p" unicode="p" horiz-adv-x="628" 
d="M431 350h-235v-112h235c31 0 47 6 47 34v44c0 28 -16 34 -47 34zM94 0v423h381c68 0 99 -22 99 -82v-94c0 -59 -31 -82 -99 -82h-279v-165h-102z" />
    <glyph glyph-name="q" unicode="q" horiz-adv-x="715" 
d="M187 81h155l-44 91l74 28l58 -119h98v264h-341v-264zM84 323c0 82 28 100 110 100h327c82 0 110 -17 110 -100v-222c0 -79 -27 -100 -110 -100h-50l58 -109h-104l-48 109h-183c-84 0 -110 21 -110 100v222z" />
    <glyph glyph-name="r" unicode="r" horiz-adv-x="650" 
d="M94 0v423h381c68 0 99 -23 99 -82v-100c0 -58 -31 -81 -99 -81h-58l201 -160h-148l-177 160h-97v-160h-102zM431 350h-235v-117h235c31 0 47 6 47 34v49c0 28 -16 34 -47 34z" />
    <glyph glyph-name="s" unicode="s" horiz-adv-x="663" 
d="M485 347h-291v-89h275c84 0 110 -20 110 -100v-58c0 -79 -26 -100 -110 -100h-274c-85 0 -112 21 -112 100v12l92 17v-50h311v97h-274c-83 0 -111 20 -111 100v47c0 80 28 100 111 100h251c78 0 111 -18 111 -92v-10l-89 -19v45z" />
    <glyph glyph-name="t" unicode="t" horiz-adv-x="590" 
d="M346 347v-347h-103v347h-204v76h512v-76h-205z" />
    <glyph glyph-name="u" unicode="u" horiz-adv-x="689" 
d="M197 423v-344h294v344h104v-323c0 -79 -27 -100 -111 -100h-280c-84 0 -110 21 -110 100v323h103z" />
    <glyph glyph-name="v" unicode="v" horiz-adv-x="632" 
d="M292 0l-256 423h117l179 -307l169 307h107l-245 -423h-71z" />
    <glyph glyph-name="w" unicode="w" horiz-adv-x="789" 
d="M208 0l-172 423h108l111 -295l119 295h71l118 -295l109 295h93l-170 -423h-70l-122 299l-124 -299h-71z" />
    <glyph glyph-name="x" unicode="x" horiz-adv-x="638" 
d="M51 0l209 217l-213 206h138l142 -137l134 137h119l-193 -194l238 -229h-141l-162 158l-149 -158h-122z" />
    <glyph glyph-name="y" unicode="y" horiz-adv-x="593" 
d="M254 0v190l-231 233h139l151 -158l153 158h121l-230 -231v-192h-103z" />
    <glyph glyph-name="z" unicode="z" horiz-adv-x="616" 
d="M70 0v46l310 301h-279v76h446v-42l-316 -303h316v-78h-477z" />
    <glyph glyph-name="braceleft" unicode="{" 
d="M423 648h-20c-83 0 -99 -26 -99 -112v-118c0 -93 -17 -138 -98 -159c82 -21 98 -66 98 -159v-118c0 -85 15 -112 100 -112h19v-72h-21c-58 0 -101 4 -133 24c-44 27 -49 74 -49 150v120c0 95 -30 132 -117 132c-7 0 -14 -1 -21 -1v73c8 0 15 -1 22 -1
c86 0 116 36 116 131v120c0 76 5 123 49 150c33 20 76 25 136 25h18v-73z" />
    <glyph glyph-name="bar" unicode="|" 
d="M287 764v-1000h-73v1000h73z" />
    <glyph glyph-name="braceright" unicode="}" 
d="M281 546v-120c0 -95 30 -131 116 -131c7 0 14 1 22 1v-73c-7 0 -15 1 -21 1c-88 0 -117 -37 -117 -132v-120c0 -76 -5 -123 -49 -150c-32 -20 -75 -24 -133 -24h-21v72h19c84 0 100 27 100 113v117c0 93 17 138 98 159c-81 21 -98 66 -98 159v118c0 85 -16 112 -100 112
h-19v73h18c60 0 104 -5 136 -25c44 -27 49 -74 49 -150z" />
    <glyph glyph-name="asciitilde" unicode="~" horiz-adv-x="833" 
d="M747 300c-66 -46 -127 -69 -190 -69c-51 0 -95 18 -141 34c-47 16 -91 32 -141 32c-59 0 -117 -27 -188 -77v76c69 47 131 70 189 70c52 0 97 -14 142 -30c49 -17 93 -35 140 -35c62 0 120 26 189 75v-76z" />
    <glyph glyph-name="exclamdown" unicode="&#xa1;" horiz-adv-x="384" 
d="M230 306l38 -306h-155l38 306h79zM155 374h-17c-21 0 -25 10 -25 34v74c0 34 9 34 42 34h88c21 0 25 -10 25 -34v-74c0 -34 -9 -34 -42 -34h-71z" />
    <glyph glyph-name="cent" unicode="&#xa2;" horiz-adv-x="773" 
d="M268 -101l35 101h-26c-60 0 -76 25 -76 82v184c0 62 20 80 94 80h127l28 82h54l-28 -82c77 0 96 -11 96 -74v-45l-88 -14v54h-35l-65 -186h100v68l88 -21v-65c0 -49 -24 -63 -81 -63h-134l-35 -101h-54zM331 81l64 186h-99v-186h35z" />
    <glyph glyph-name="sterling" unicode="&#xa3;" horiz-adv-x="773" 
d="M105 -12v103c81 7 112 37 112 108c0 5 -1 14 -2 28h-111v79h105c-3 24 -4 46 -4 66c0 102 48 144 160 144h175c91 0 137 -36 137 -100v-47l-101 -17v30c0 42 -23 51 -71 51h-114c-68 0 -86 -15 -86 -79c0 -15 1 -31 4 -48h146v-79h-142c-1 -39 -6 -73 -17 -103
c88 -24 167 -35 232 -35c71 0 91 10 91 65v20l98 -18v-37c0 -84 -56 -127 -166 -127c-75 0 -175 16 -298 52c-44 -39 -85 -56 -139 -56h-9z" />
    <glyph glyph-name="fraction" unicode="&#x2044;" horiz-adv-x="167" 
d="M333 532l-435 -548h-65l436 548h64z" />
    <glyph glyph-name="yen" unicode="&#xa5;" horiz-adv-x="773" 
d="M570 516h140l-135 -144h109v-65h-169l-72 -77h241v-65h-241v-165h-111v165h-242v65h242l-72 77h-170v65h109l-136 144h158l175 -203z" />
    <glyph glyph-name="florin" unicode="&#x192;" horiz-adv-x="773" 
d="M386 6c-19 -99 -53 -134 -161 -134c-88 0 -131 32 -131 100v34l98 23l-1 -39v-4c0 -27 9 -34 37 -34c32 0 46 20 54 61l62 316h-93v58h105l20 103c21 107 59 133 173 133c79 0 118 -32 119 -98l1 -34l-99 -14l2 32v4c0 24 -10 34 -34 34c-36 0 -49 -19 -57 -61l-20 -99
h108v-58h-120z" />
    <glyph glyph-name="section" unicode="&#xa7;" 
d="M132 263c0 -23 19 -43 59 -65c54 -30 106 -42 131 -42c31 0 50 16 50 38s-23 44 -70 69c-53 28 -103 39 -125 39c-29 0 -45 -18 -45 -39zM76 -21l58 54c38 -37 77 -55 117 -55c39 0 64 20 64 45c0 33 -36 45 -99 71c-102 42 -155 76 -155 143c0 53 36 91 100 101
c-38 24 -56 52 -56 89c0 61 54 107 140 107c60 0 116 -20 160 -59l-58 -51c-35 32 -70 48 -99 48c-38 0 -60 -18 -60 -42c0 -30 31 -43 87 -65c104 -41 167 -72 167 -143c0 -50 -38 -89 -104 -102c39 -19 62 -56 62 -96c0 -63 -60 -114 -148 -114c-63 0 -129 26 -176 69z
" />
    <glyph glyph-name="currency" unicode="&#xa4;" horiz-adv-x="773" 
d="M213 424v-73h230l-29 -64h-201v-57h176l-29 -65h-147v-72h369v115l109 -25v-61c0 -96 -30 -122 -128 -122h-330c-98 0 -128 26 -128 122v43h-87l29 65h58v57h-99l29 64h70v43c0 96 30 122 128 122h330c98 0 128 -26 128 -122v-49l-109 -19v98h-369z" />
    <glyph glyph-name="quotesingle" unicode="'" horiz-adv-x="155" 
d="M112 701v-271h-68v271h68z" />
    <glyph glyph-name="quotedblleft" unicode="&#x201c;" horiz-adv-x="579" 
d="M130 228h-17c-20 0 -24 12 -24 37v103l99 148h59l-85 -152h57c20 0 24 -12 24 -37v-62c0 -37 -7 -37 -41 -37h-72zM378 228h-17c-20 0 -25 12 -25 37v103l99 148h60l-85 -152h57c20 0 24 -12 24 -37v-62c0 -37 -8 -37 -42 -37h-71z" />
    <glyph glyph-name="guillemotleft" unicode="&#xab;" horiz-adv-x="562" 
d="M269 64h-89l-118 148l118 147h89l-114 -147zM500 64h-89l-118 148l118 147h89l-114 -147z" />
    <glyph glyph-name="guilsinglleft" unicode="&#x2039;" horiz-adv-x="331" 
d="M269 64h-89l-118 148l118 147h89l-114 -147z" />
    <glyph glyph-name="guilsinglright" unicode="&#x203a;" horiz-adv-x="331" 
d="M62 359h89l118 -147l-118 -148h-89l114 148z" />
    <glyph glyph-name="fi" unicode="&#xfb01;" horiz-adv-x="841" 
d="M94 0v423h449v-76h-345v-110h186v-79h-186v-158h-104zM644 0v423h103v-423h-103z" />
    <glyph glyph-name="fl" unicode="&#xfb02;" horiz-adv-x="1102" 
d="M94 0v423h449v-76h-345v-110h186v-79h-186v-158h-104zM644 0v423h104v-344h332v-79h-436z" />
    <glyph glyph-name="endash" unicode="&#x2013;" 
d="M0 231v70h500v-70h-500z" />
    <glyph glyph-name="dagger" unicode="&#x2020;" 
d="M236 -106c-5 113 -19 211 -40 291c17 42 30 86 40 132l-165 -37v106l165 -35l-40 165h108l-41 -165l165 35v-106l-165 37c10 -46 24 -90 41 -132c-21 -80 -36 -178 -41 -291h-27z" />
    <glyph glyph-name="daggerdbl" unicode="&#x2021;" 
d="M304 208l-41 -109l165 38v-106l-165 34l41 -165h-108l40 165l-165 -34v106l165 -38l-40 109l40 109l-165 -37v106l165 -35l-40 165h108l-41 -165l165 35v-106l-165 37z" />
    <glyph glyph-name="periodcentered" unicode="&#xb7;" horiz-adv-x="331" 
d="M84 258c0 46 35 81 81 81s82 -35 82 -81c0 -44 -38 -82 -82 -82s-81 38 -81 82z" />
    <glyph glyph-name="paragraph" unicode="&#xb6;" 
d="M468 680h-59v-680h-54v680h-87v-680h-54v382c-113 5 -182 73 -182 170c0 100 74 170 192 170h244v-42z" />
    <glyph glyph-name="bullet" unicode="&#x2022;" horiz-adv-x="590" 
d="M150 372c0 80 65 144 145 144c79 0 144 -64 144 -144c0 -79 -65 -145 -145 -145s-144 65 -144 145z" />
    <glyph glyph-name="quotesinglbase" unicode="&#x201a;" horiz-adv-x="331" 
d="M201 155h17c20 0 24 -12 24 -37v-103l-99 -148h-59l85 152h-57c-20 0 -24 12 -24 37v62c0 37 7 37 41 37h72z" />
    <glyph glyph-name="quotedblbase" unicode="&#x201e;" horiz-adv-x="579" 
d="M201 155h17c20 0 24 -12 24 -37v-103l-99 -148h-59l85 152h-57c-20 0 -24 12 -24 37v62c0 37 7 37 41 37h72zM448 155h18c20 0 24 -12 24 -37v-103l-99 -148h-60l85 152h-56c-20 0 -25 12 -25 37v62c0 37 8 37 42 37h71z" />
    <glyph glyph-name="quotedblright" unicode="&#x201d;" horiz-adv-x="579" 
d="M201 516h17c20 0 24 -12 24 -37v-103l-99 -148h-59l85 152h-57c-20 0 -24 12 -24 37v62c0 37 7 37 41 37h72zM448 516h18c20 0 24 -12 24 -37v-103l-99 -148h-60l85 152h-56c-20 0 -25 12 -25 37v62c0 37 8 37 42 37h71z" />
    <glyph glyph-name="guillemotright" unicode="&#xbb;" horiz-adv-x="562" 
d="M62 359h89l118 -147l-118 -148h-89l114 148zM294 359h88l118 -147l-118 -148h-88l113 148z" />
    <glyph glyph-name="ellipsis" unicode="&#x2026;" horiz-adv-x="1000" 
d="M202 155h18c20 0 24 -12 24 -37v-81c0 -37 -8 -37 -42 -37h-89c-20 0 -24 12 -24 37v81c0 37 8 37 42 37h71zM535 155h18c20 0 24 -12 24 -37v-81c0 -37 -8 -37 -42 -37h-89c-20 0 -24 12 -24 37v81c0 37 8 37 42 37h71zM869 155h18c20 0 24 -12 24 -37v-81
c0 -37 -8 -37 -42 -37h-89c-20 0 -24 12 -24 37v81c0 37 8 37 42 37h71z" />
    <glyph glyph-name="perthousand" unicode="&#x2030;" horiz-adv-x="1160" 
d="M44 380c0 86 68 152 154 152s153 -67 153 -152c0 -84 -71 -155 -153 -155c-83 0 -154 71 -154 155zM112 378c0 -46 38 -85 85 -85c48 0 86 38 86 85s-39 86 -86 86c-46 0 -85 -40 -85 -86zM649 532l-435 -548h-65l435 548h65zM447 138c0 86 67 153 153 153
s154 -68 154 -153c0 -84 -72 -154 -154 -154c-83 0 -153 70 -153 154zM515 137c0 -46 38 -85 85 -85c48 0 86 38 86 85s-39 86 -86 86c-46 0 -85 -40 -85 -86zM808 138c0 86 68 153 154 153s153 -68 153 -153c0 -84 -71 -154 -153 -154c-83 0 -154 70 -154 154zM876 137
c0 -46 38 -85 85 -85c48 0 86 38 86 85s-39 86 -86 86c-46 0 -85 -40 -85 -86z" />
    <glyph glyph-name="questiondown" unicode="&#xbf;" horiz-adv-x="662" 
d="M298 374h-17c-21 0 -25 10 -25 34v74c0 34 9 34 42 34h88c21 0 25 -10 25 -34v-74c0 -34 -9 -34 -42 -34h-71zM383 307v-72l-173 -104v-45h231v64l100 -16v-28c0 -71 -36 -106 -108 -106h-204c-83 0 -123 31 -123 97v81l175 102v27h102z" />
    <glyph glyph-name="grave" unicode="`" 
d="M322 478h-64l-144 169h108z" />
    <glyph glyph-name="acute" unicode="&#xb4;" 
d="M178 478l100 169h108l-144 -169h-64z" />
    <glyph glyph-name="circumflex" unicode="&#x2c6;" 
d="M105 477l92 170h106l92 -170h-64l-81 103l-82 -103h-63z" />
    <glyph glyph-name="tilde" unicode="&#x2dc;" 
d="M397 616c-15 -75 -44 -110 -97 -110c-11 0 -23 2 -34 5l-41 12c-11 3 -21 5 -31 5c-22 0 -35 -11 -42 -33h-49c13 72 44 107 94 107c11 0 25 -2 41 -7l43 -12c8 -2 16 -3 25 -3c20 0 36 12 42 36h49z" />
    <glyph glyph-name="macron" unicode="&#xaf;" 
d="M115 521v72h270v-72h-270z" />
    <glyph glyph-name="breve" unicode="&#x2d8;" 
d="M104 634h59c3 -50 30 -71 87 -71s83 21 86 71h58c-6 -97 -51 -143 -144 -143s-139 46 -146 143z" />
    <glyph glyph-name="dotaccent" unicode="&#x2d9;" 
d="M198 499v117h105v-117h-105z" />
    <glyph glyph-name="dieresis" unicode="&#xa8;" 
d="M117 501v112h100v-112h-100zM283 501v112h100v-112h-100z" />
    <glyph glyph-name="ring" unicode="&#x2da;" 
d="M125 594c0 70 55 126 125 126s126 -56 126 -126c0 -71 -56 -126 -126 -126s-125 55 -125 126zM188 594c0 -35 28 -63 63 -63s62 29 62 63c0 35 -27 62 -62 62s-63 -27 -63 -62z" />
    <glyph glyph-name="cedilla" unicode="&#xb8;" 
d="M140 -212v58c54 -14 96 -21 125 -21c35 0 53 13 53 37c0 28 -23 39 -70 39c-6 0 -13 -1 -20 -1v100h44v-46h8c77 0 115 -30 115 -94c0 -58 -42 -93 -122 -93c-31 0 -77 6 -133 21z" />
    <glyph glyph-name="hungarumlaut" unicode="&#x2dd;" 
d="M199 478h-51l65 169h92zM276 478l79 169h96l-124 -169h-51z" />
    <glyph glyph-name="ogonek" unicode="&#x2db;" 
d="M299 0c-42 -36 -63 -67 -63 -104c0 -28 11 -39 43 -39h45v-76h-47c-76 0 -112 27 -112 88c0 44 31 85 91 131h43z" />
    <glyph glyph-name="caron" unicode="&#x2c7;" 
d="M105 647h63l82 -102l81 102h64l-92 -170h-106z" />
    <glyph glyph-name="emdash" unicode="&#x2014;" horiz-adv-x="1000" 
d="M0 301h1000v-70h-1000v70z" />
    <glyph glyph-name="AE" unicode="&#xc6;" horiz-adv-x="1069" 
d="M980 97v-97h-456v128h-265l-105 -128h-137l431 516h527v-88h-334v-115h239v-88h-239v-128h339zM524 222v216h-18l-178 -216h196z" />
    <glyph glyph-name="ordfeminine" unicode="&#xaa;" horiz-adv-x="426" 
d="M152 308h128l-65 106zM20 206l165 254h66l168 -254h-76l-35 56h-185l-35 -56h-68z" />
    <glyph glyph-name="Lslash" unicode="&#x141;" horiz-adv-x="683" 
d="M132 0v143l-78 -54v104l78 54v269h120v-197l158 110v-106l-158 -110v-116h387v-97h-507z" />
    <glyph glyph-name="Oslash" unicode="&#xd8;" horiz-adv-x="878" 
d="M637 424h-47l-228 -327h275v327zM121 394c0 97 31 122 128 122h319l92 128h99l-91 -129c69 -6 89 -42 89 -121v-272c0 -97 -31 -122 -128 -122h-321l-90 -128h-99l90 130c-67 5 -88 41 -88 120v272zM241 97h48l227 327h-275v-327z" />
    <glyph glyph-name="OE" unicode="&#x152;" horiz-adv-x="1105" 
d="M241 97h320v331h-320v-331zM121 394c0 97 31 122 128 122h762v-88h-333v-115h238v-88h-238v-128h338v-97h-767c-97 0 -128 25 -128 122v272z" />
    <glyph glyph-name="ordmasculine" unicode="&#xba;" horiz-adv-x="472" 
d="M55 400c0 48 18 60 73 60h216c55 0 72 -12 72 -60v-134c0 -48 -17 -60 -72 -60h-216c-55 0 -73 12 -73 60v134zM123 255h225v158h-225v-158z" />
    <glyph glyph-name="ae" unicode="&#xe6;" horiz-adv-x="898" 
d="M454 182v177h-19l-154 -177h173zM843 80v-80h-389v105h-231l-91 -105h-117l371 423h453v-75h-287v-92h205v-73h-205v-103h291z" />
    <glyph glyph-name="dotlessi" unicode="&#x131;" horiz-adv-x="291" 
d="M94 0v423h103v-423h-103z" />
    <glyph glyph-name="lslash" unicode="&#x142;" horiz-adv-x="552" 
d="M94 0v113l-67 -48v86l67 47v225h104v-164l143 101v-88l-143 -100v-93h332v-79h-436z" />
    <glyph glyph-name="oslash" unicode="&#xf8;" horiz-adv-x="715" 
d="M187 81h45l191 264h-236v-264zM86 323c0 80 27 100 110 100h274l79 105h85l-78 -106c59 -5 77 -34 77 -99v-223c0 -78 -25 -100 -110 -100h-276l-77 -105h-86l78 107c-57 4 -76 33 -76 98v223zM529 345h-44l-191 -264h235v264z" />
    <glyph glyph-name="oe" unicode="&#x153;" horiz-adv-x="907" 
d="M84 323c0 80 26 100 110 100h656v-75h-287v-92h205v-73h-205v-103h291v-80h-660c-85 0 -110 21 -110 100v223zM187 81h276v264h-276v-264z" />
    <glyph glyph-name="germandbls" unicode="&#xdf;" horiz-adv-x="1326" 
d="M485 347h-291v-89h275c84 0 110 -20 110 -100v-58c0 -79 -26 -100 -110 -100h-274c-85 0 -112 21 -112 100v12l92 17v-50h311v97h-274c-83 0 -111 20 -111 100v47c0 80 28 100 111 100h251c78 0 111 -18 111 -92v-10l-89 -19v45zM1148 347h-291v-89h275
c84 0 110 -20 110 -100v-58c0 -79 -26 -100 -110 -100h-274c-85 0 -112 21 -112 100v12l92 17v-50h311v97h-274c-83 0 -111 20 -111 100v47c0 80 28 100 111 100h251c78 0 111 -18 111 -92v-10l-89 -19v45z" />
    <glyph glyph-name="Aacute" unicode="&#xc1;" horiz-adv-x="771" 
d="M33 0l292 516h116l296 -516h-135l-62 113h-327l-60 -113h-120zM264 206h226l-111 210zM314 571l100 169h108l-144 -169h-64z" />
    <glyph glyph-name="Acircumflex" unicode="&#xc2;" horiz-adv-x="771" 
d="M33 0l292 516h116l296 -516h-135l-62 113h-327l-60 -113h-120zM264 206h226l-111 210zM241 570l92 170h106l92 -170h-64l-81 103l-82 -103h-63z" />
    <glyph glyph-name="Adieresis" unicode="&#xc4;" horiz-adv-x="771" 
d="M33 0l292 516h116l296 -516h-135l-62 113h-327l-60 -113h-120zM264 206h226l-111 210zM253 594v112h100v-112h-100zM419 594v112h100v-112h-100z" />
    <glyph glyph-name="Agrave" unicode="&#xc0;" horiz-adv-x="771" 
d="M33 0l292 516h116l296 -516h-135l-62 113h-327l-60 -113h-120zM264 206h226l-111 210zM458 571h-64l-144 169h108z" />
    <glyph glyph-name="Aring" unicode="&#xc5;" horiz-adv-x="771" 
d="M33 0l292 516h116l296 -516h-135l-62 113h-327l-60 -113h-120zM264 206h226l-111 210zM257 675c0 70 55 125 125 125s127 -55 127 -125c0 -71 -57 -126 -127 -126s-125 55 -125 126zM321 674c0 -35 27 -62 62 -62s62 28 62 62c0 35 -27 63 -62 63s-62 -28 -62 -63z" />
    <glyph glyph-name="Atilde" unicode="&#xc3;" horiz-adv-x="771" 
d="M33 0l292 516h116l296 -516h-135l-62 113h-327l-60 -113h-120zM264 206h226l-111 210zM533 709c-15 -75 -44 -110 -97 -110c-11 0 -23 2 -34 5l-41 12c-11 3 -21 5 -31 5c-22 0 -35 -11 -42 -33h-49c13 72 44 107 94 107c11 0 25 -2 41 -7l43 -12c8 -2 16 -3 25 -3
c20 0 36 12 42 36h49z" />
    <glyph glyph-name="Ccedilla" unicode="&#xc7;" horiz-adv-x="801" 
d="M565 424h-324v-327h324v111l120 -25v-61c0 -97 -31 -122 -128 -122h-308c-97 0 -128 25 -128 122v272c0 97 31 122 128 122h308c97 0 128 -25 128 -122v-49l-120 -19v98zM291 -212v58c54 -14 96 -21 125 -21c35 0 53 13 53 37c0 28 -23 39 -70 39c-6 0 -13 -1 -20 -1v100
h44v-46h8c77 0 115 -30 115 -94c0 -58 -42 -93 -122 -93c-31 0 -77 6 -133 21z" />
    <glyph glyph-name="Eacute" unicode="&#xc9;" horiz-adv-x="755" 
d="M132 0v516h528v-88h-408v-115h238v-88h-238v-128h413v-97h-533zM327 571l100 169h108l-144 -169h-64z" />
    <glyph glyph-name="Ecircumflex" unicode="&#xca;" horiz-adv-x="755" 
d="M132 0v516h528v-88h-408v-115h238v-88h-238v-128h413v-97h-533zM254 570l92 170h106l92 -170h-64l-81 103l-82 -103h-63z" />
    <glyph glyph-name="Edieresis" unicode="&#xcb;" horiz-adv-x="755" 
d="M132 0v516h528v-88h-408v-115h238v-88h-238v-128h413v-97h-533zM266 594v112h100v-112h-100zM432 594v112h100v-112h-100z" />
    <glyph glyph-name="Egrave" unicode="&#xc8;" horiz-adv-x="755" 
d="M132 0v516h528v-88h-408v-115h238v-88h-238v-128h413v-97h-533zM471 571h-64l-144 169h108z" />
    <glyph glyph-name="Eth" unicode="&#xd0;" horiz-adv-x="847" 
d="M132 0v223h-96v95h96v198h332c193 0 295 -95 295 -255c0 -97 -42 -177 -114 -221c-50 -31 -120 -40 -212 -40h-301zM252 97h155c152 0 228 38 228 166c0 105 -57 161 -170 161h-213v-106h192v-95h-192v-126z" />
    <glyph glyph-name="Euro" unicode="&#x20ac;" horiz-adv-x="773" 
d="M213 424v-73h230l-29 -64h-201v-57h176l-29 -65h-147v-72h369v115l109 -25v-61c0 -96 -30 -122 -128 -122h-330c-98 0 -128 26 -128 122v43h-87l29 65h58v57h-99l29 64h70v43c0 96 30 122 128 122h330c98 0 128 -26 128 -122v-49l-109 -19v98h-369z" />
    <glyph glyph-name="Iacute" unicode="&#xcd;" horiz-adv-x="384" 
d="M132 0v516h120v-516h-120zM120 571l100 169h108l-144 -169h-64z" />
    <glyph glyph-name="Icircumflex" unicode="&#xce;" horiz-adv-x="384" 
d="M132 0v516h120v-516h-120zM47 570l92 170h106l92 -170h-64l-81 103l-82 -103h-63z" />
    <glyph glyph-name="Idieresis" unicode="&#xcf;" horiz-adv-x="384" 
d="M132 0v516h120v-516h-120zM59 594v112h100v-112h-100zM225 594v112h100v-112h-100z" />
    <glyph glyph-name="Igrave" unicode="&#xcc;" horiz-adv-x="384" 
d="M132 0v516h120v-516h-120zM264 571h-64l-144 169h108z" />
    <glyph glyph-name="Ntilde" unicode="&#xd1;" horiz-adv-x="869" 
d="M131 0v516h82l363 -304c21 -17 41 -35 59 -56c-3 43 -5 73 -5 89v271h108v-516h-82l-379 319c-15 13 -29 26 -43 42c4 -40 5 -67 5 -82v-279h-108zM582 709c-15 -75 -44 -110 -97 -110c-11 0 -23 2 -34 5l-41 12c-11 3 -21 5 -31 5c-22 0 -35 -11 -42 -33h-49
c13 72 44 107 94 107c11 0 25 -2 41 -7l43 -12c8 -2 16 -3 25 -3c20 0 36 12 42 36h49z" />
    <glyph glyph-name="Oacute" unicode="&#xd3;" horiz-adv-x="878" 
d="M241 97h396v327h-396v-327zM121 394c0 97 31 122 128 122h380c97 0 128 -25 128 -122v-272c0 -97 -31 -122 -128 -122h-380c-97 0 -128 25 -128 122v272zM367 571l100 169h108l-144 -169h-64z" />
    <glyph glyph-name="Ocircumflex" unicode="&#xd4;" horiz-adv-x="878" 
d="M241 97h396v327h-396v-327zM121 394c0 97 31 122 128 122h380c97 0 128 -25 128 -122v-272c0 -97 -31 -122 -128 -122h-380c-97 0 -128 25 -128 122v272zM294 570l92 170h106l92 -170h-64l-81 103l-82 -103h-63z" />
    <glyph glyph-name="Odieresis" unicode="&#xd6;" horiz-adv-x="878" 
d="M241 97h396v327h-396v-327zM121 394c0 97 31 122 128 122h380c97 0 128 -25 128 -122v-272c0 -97 -31 -122 -128 -122h-380c-97 0 -128 25 -128 122v272zM306 594v112h100v-112h-100zM472 594v112h100v-112h-100z" />
    <glyph glyph-name="Ograve" unicode="&#xd2;" horiz-adv-x="878" 
d="M241 97h396v327h-396v-327zM121 394c0 97 31 122 128 122h380c97 0 128 -25 128 -122v-272c0 -97 -31 -122 -128 -122h-380c-97 0 -128 25 -128 122v272zM511 571h-64l-144 169h108z" />
    <glyph glyph-name="Otilde" unicode="&#xd5;" horiz-adv-x="878" 
d="M241 97h396v327h-396v-327zM121 394c0 97 31 122 128 122h380c97 0 128 -25 128 -122v-272c0 -97 -31 -122 -128 -122h-380c-97 0 -128 25 -128 122v272zM586 709c-15 -75 -44 -110 -97 -110c-11 0 -23 2 -34 5l-41 12c-11 3 -21 5 -31 5c-22 0 -35 -11 -42 -33h-49
c13 72 44 107 94 107c11 0 25 -2 41 -7l43 -12c8 -2 16 -3 25 -3c20 0 36 12 42 36h49z" />
    <glyph glyph-name="Scaron" unicode="&#x160;" horiz-adv-x="809" 
d="M579 426h-338v-111h322c97 0 129 -25 129 -122v-71c0 -97 -32 -122 -129 -122h-319c-97 0 -129 25 -129 122v14l106 22v-61h365v118h-322c-97 0 -128 25 -128 122v57c0 97 31 122 128 122h293c92 0 128 -24 128 -113v-11l-106 -25v59zM260 740h63l82 -102l81 102h64
l-92 -170h-106z" />
    <glyph glyph-name="Thorn" unicode="&#xde;" horiz-adv-x="743" 
d="M132 516h118v-91h323c80 0 117 -28 117 -100v-115c0 -72 -37 -100 -117 -100h-323v-110h-118v516zM250 336v-137h270c37 0 54 7 54 41v55c0 34 -17 41 -54 41h-270z" />
    <glyph glyph-name="Uacute" unicode="&#xda;" horiz-adv-x="846" 
d="M252 516v-419h342v419h120v-394c0 -97 -31 -122 -128 -122h-326c-97 0 -128 25 -128 122v394h120zM351 571l100 169h108l-144 -169h-64z" />
    <glyph glyph-name="Ucircumflex" unicode="&#xdb;" horiz-adv-x="846" 
d="M252 516v-419h342v419h120v-394c0 -97 -31 -122 -128 -122h-326c-97 0 -128 25 -128 122v394h120zM278 570l92 170h106l92 -170h-64l-81 103l-82 -103h-63z" />
    <glyph glyph-name="Udieresis" unicode="&#xdc;" horiz-adv-x="846" 
d="M252 516v-419h342v419h120v-394c0 -97 -31 -122 -128 -122h-326c-97 0 -128 25 -128 122v394h120zM290 594v112h100v-112h-100zM456 594v112h100v-112h-100z" />
    <glyph glyph-name="Ugrave" unicode="&#xd9;" horiz-adv-x="846" 
d="M252 516v-419h342v419h120v-394c0 -97 -31 -122 -128 -122h-326c-97 0 -128 25 -128 122v394h120zM495 571h-64l-144 169h108z" />
    <glyph glyph-name="Yacute" unicode="&#xdd;" horiz-adv-x="672" 
d="M276 0v231l-268 285h160l177 -198l178 198h141l-267 -282v-234h-121zM264 571l100 169h108l-144 -169h-64z" />
    <glyph glyph-name="Ydieresis" unicode="&#x178;" horiz-adv-x="672" 
d="M276 0v231l-268 285h160l177 -198l178 198h141l-267 -282v-234h-121zM203 594v112h100v-112h-100zM369 594v112h100v-112h-100z" />
    <glyph glyph-name="Zcaron" unicode="&#x17d;" horiz-adv-x="682" 
d="M61 0v56l361 368h-325v92h518v-51l-366 -368h366v-97h-554zM196 740h63l82 -102l81 102h64l-92 -170h-106z" />
    <glyph glyph-name="aacute" unicode="&#xe1;" horiz-adv-x="646" 
d="M230 170h194l-99 176zM30 0l251 423h99l255 -423h-116l-53 93h-280l-53 -93h-103zM251 478l100 169h108l-144 -169h-64z" />
    <glyph glyph-name="acircumflex" unicode="&#xe2;" horiz-adv-x="646" 
d="M230 170h194l-99 176zM30 0l251 423h99l255 -423h-116l-53 93h-280l-53 -93h-103zM178 477l92 170h106l92 -170h-64l-81 103l-82 -103h-63z" />
    <glyph glyph-name="adieresis" unicode="&#xe4;" horiz-adv-x="646" 
d="M230 170h194l-99 176zM30 0l251 423h99l255 -423h-116l-53 93h-280l-53 -93h-103zM190 501v112h100v-112h-100zM356 501v112h100v-112h-100z" />
    <glyph glyph-name="agrave" unicode="&#xe0;" horiz-adv-x="646" 
d="M230 170h194l-99 176zM30 0l251 423h99l255 -423h-116l-53 93h-280l-53 -93h-103zM395 478h-64l-144 169h108z" />
    <glyph glyph-name="aring" unicode="&#xe5;" horiz-adv-x="646" 
d="M230 170h194l-99 176zM30 0l251 423h99l255 -423h-116l-53 93h-280l-53 -93h-103zM198 594c0 70 55 126 125 126s126 -56 126 -126c0 -71 -56 -126 -126 -126s-125 55 -125 126zM261 594c0 -35 28 -63 63 -63s62 29 62 63c0 35 -27 62 -62 62s-63 -27 -63 -62z" />
    <glyph glyph-name="atilde" unicode="&#xe3;" horiz-adv-x="646" 
d="M230 170h194l-99 176zM30 0l251 423h99l255 -423h-116l-53 93h-280l-53 -93h-103zM470 616c-15 -75 -44 -110 -97 -110c-11 0 -23 2 -34 5l-41 12c-11 3 -21 5 -31 5c-22 0 -35 -11 -42 -33h-49c13 72 44 107 94 107c11 0 25 -2 41 -7l43 -12c8 -2 16 -3 25 -3
c20 0 36 12 42 36h49z" />
    <glyph glyph-name="brokenbar" unicode="&#xa6;" 
d="M287 699v-370h-73v370h73zM287 199v-370h-73v370h73z" />
    <glyph glyph-name="ccedilla" unicode="&#xe7;" horiz-adv-x="644" 
d="M465 345h-278v-264h278v90l104 -21v-50c0 -79 -27 -100 -111 -100h-264c-85 0 -110 22 -110 100v223c0 79 26 100 110 100h264c84 0 111 -20 111 -100v-41l-104 -15v78zM215 -212v58c54 -14 96 -21 125 -21c35 0 53 13 53 37c0 28 -23 39 -70 39c-6 0 -13 -1 -20 -1v100
h44v-46h8c77 0 115 -30 115 -94c0 -58 -42 -93 -122 -93c-31 0 -77 6 -133 21z" />
    <glyph glyph-name="copyright" unicode="&#xa9;" horiz-adv-x="833" 
d="M416 715c98 0 187 -36 256 -105c67 -67 105 -158 105 -255c0 -98 -37 -186 -104 -252c-71 -69 -162 -108 -257 -108s-184 38 -253 107s-106 158 -106 253s37 185 107 256c67 67 155 104 252 104zM729 355c0 85 -32 163 -90 221c-60 60 -137 92 -222 92s-161 -32 -219 -90
c-61 -61 -94 -141 -94 -223s33 -160 93 -220s137 -92 220 -92c82 0 160 33 222 93c58 57 90 133 90 219zM514 443c-8 50 -44 78 -100 78c-66 0 -110 -59 -110 -166c0 -104 44 -162 115 -162c53 0 91 32 100 86h71c-6 -85 -76 -143 -174 -143c-117 0 -190 81 -190 222
c0 132 79 217 193 217c93 0 160 -54 167 -132h-72z" />
    <glyph glyph-name="degree" unicode="&#xb0;" horiz-adv-x="329" 
d="M165 711c77 0 140 -63 140 -141c0 -76 -61 -140 -141 -140c-79 0 -140 62 -140 140c0 79 64 141 141 141zM259 571c0 52 -41 94 -94 94c-52 0 -95 -41 -95 -94s42 -96 95 -96c54 0 94 44 94 96z" />
    <glyph glyph-name="divide" unicode="&#xf7;" horiz-adv-x="833" 
d="M417 540c33 0 61 -28 61 -62c0 -33 -27 -61 -61 -61s-61 27 -61 61s28 62 61 62zM709 332v-68h-585v68h585zM417 179c33 0 61 -27 61 -61c0 -33 -27 -61 -61 -61c-35 0 -61 27 -61 61s28 61 61 61z" />
    <glyph glyph-name="eacute" unicode="&#xe9;" horiz-adv-x="608" 
d="M94 0v423h454v-75h-350v-92h204v-73h-204v-104h355v-79h-459zM248 478l100 169h108l-144 -169h-64z" />
    <glyph glyph-name="ecircumflex" unicode="&#xea;" horiz-adv-x="608" 
d="M94 0v423h454v-75h-350v-92h204v-73h-204v-104h355v-79h-459zM175 477l92 170h106l92 -170h-64l-81 103l-82 -103h-63z" />
    <glyph glyph-name="edieresis" unicode="&#xeb;" horiz-adv-x="608" 
d="M94 0v423h454v-75h-350v-92h204v-73h-204v-104h355v-79h-459zM187 501v112h100v-112h-100zM353 501v112h100v-112h-100z" />
    <glyph glyph-name="egrave" unicode="&#xe8;" horiz-adv-x="608" 
d="M94 0v423h454v-75h-350v-92h204v-73h-204v-104h355v-79h-459zM392 478h-64l-144 169h108z" />
    <glyph glyph-name="iacute" unicode="&#xed;" horiz-adv-x="291" 
d="M94 0v423h103v-423h-103zM74 478l100 169h108l-144 -169h-64z" />
    <glyph glyph-name="icircumflex" unicode="&#xee;" horiz-adv-x="291" 
d="M94 0v423h103v-423h-103zM1 477l92 170h106l92 -170h-64l-81 103l-82 -103h-63z" />
    <glyph glyph-name="idieresis" unicode="&#xef;" horiz-adv-x="291" 
d="M94 0v423h103v-423h-103zM13 501v112h100v-112h-100zM179 501v112h100v-112h-100z" />
    <glyph glyph-name="igrave" unicode="&#xec;" horiz-adv-x="291" 
d="M94 0v423h103v-423h-103zM218 478h-64l-144 169h108z" />
    <glyph glyph-name="logicalnot" unicode="&#xac;" horiz-adv-x="833" 
d="M709 420v-245h-67v177h-518v68h585z" />
    <glyph glyph-name="minus" unicode="&#x2212;" horiz-adv-x="833" 
d="M709 333v-69h-585v69h585z" />
    <glyph glyph-name="mu" unicode="&#xb5;" horiz-adv-x="562" 
d="M188 523l-63 -293c-5 -22 -7 -43 -7 -65c0 -65 36 -101 98 -101c90 0 133 62 162 197l56 262h87l-76 -357c-6 -29 -11 -51 -11 -65c0 -24 10 -33 35 -33c5 0 10 0 16 1l-15 -70c-19 -4 -36 -5 -53 -5c-42 0 -61 18 -73 63c-29 -43 -73 -64 -132 -64c-53 0 -91 17 -125 57
l-54 -259h-88l155 732h88z" />
    <glyph glyph-name="multiply" unicode="&#xd7;" horiz-adv-x="833" 
d="M420 346l229 229l48 -48l-229 -229l229 -229l-48 -47l-229 228l-229 -228l-48 47l229 229l-229 229l48 48z" />
    <glyph glyph-name="ntilde" unicode="&#xf1;" horiz-adv-x="712" 
d="M94 0v423h71l359 -281v281h93v-423h-71l-358 285v-285h-94zM503 616c-15 -75 -44 -110 -97 -110c-11 0 -23 2 -34 5l-41 12c-11 3 -21 5 -31 5c-22 0 -35 -11 -42 -33h-49c13 72 44 107 94 107c11 0 25 -2 41 -7l43 -12c8 -2 16 -3 25 -3c20 0 36 12 42 36h49z" />
    <glyph glyph-name="oacute" unicode="&#xf3;" horiz-adv-x="715" 
d="M84 323c0 81 27 100 110 100h327c83 0 110 -19 110 -100v-223c0 -80 -27 -100 -110 -100h-327c-84 0 -110 20 -110 100v223zM187 81h341v264h-341v-264zM286 478l100 169h108l-144 -169h-64z" />
    <glyph glyph-name="ocircumflex" unicode="&#xf4;" horiz-adv-x="715" 
d="M84 323c0 81 27 100 110 100h327c83 0 110 -19 110 -100v-223c0 -80 -27 -100 -110 -100h-327c-84 0 -110 20 -110 100v223zM187 81h341v264h-341v-264zM213 477l92 170h106l92 -170h-64l-81 103l-82 -103h-63z" />
    <glyph glyph-name="odieresis" unicode="&#xf6;" horiz-adv-x="715" 
d="M84 323c0 81 27 100 110 100h327c83 0 110 -19 110 -100v-223c0 -80 -27 -100 -110 -100h-327c-84 0 -110 20 -110 100v223zM187 81h341v264h-341v-264zM225 501v112h100v-112h-100zM391 501v112h100v-112h-100z" />
    <glyph glyph-name="ograve" unicode="&#xf2;" horiz-adv-x="715" 
d="M84 323c0 81 27 100 110 100h327c83 0 110 -19 110 -100v-223c0 -80 -27 -100 -110 -100h-327c-84 0 -110 20 -110 100v223zM187 81h341v264h-341v-264zM430 478h-64l-144 169h108z" />
    <glyph glyph-name="onehalf" unicode="&#xbd;" horiz-adv-x="1141" 
d="M223 227v234h-69v39l138 18v-291h-69zM820 532l-435 -548h-65l436 548h64zM742 232c0 46 19 57 75 57h166c56 0 75 -11 75 -57v-18c0 -34 -12 -42 -42 -59l-191 -103h189v43l60 -15v-23c0 -46 -19 -57 -75 -57h-273v26c0 20 2 32 41 53l225 123v38h-186v-60l-64 15v37z
" />
    <glyph glyph-name="onequarter" unicode="&#xbc;" horiz-adv-x="1141" 
d="M223 227v234h-69v39l138 18v-291h-69zM820 532l-435 -548h-65l436 548h64zM951 112v129l-177 -129h177zM951 -3v67h-246v48l244 180h71v-180h79v-48h-79v-67h-69z" />
    <glyph glyph-name="onesuperior" unicode="&#xb9;" horiz-adv-x="510" 
d="M233 206v251h-72v41l144 20v-312h-72z" />
    <glyph glyph-name="otilde" unicode="&#xf5;" horiz-adv-x="715" 
d="M84 323c0 81 27 100 110 100h327c83 0 110 -19 110 -100v-223c0 -80 -27 -100 -110 -100h-327c-84 0 -110 20 -110 100v223zM187 81h341v264h-341v-264zM505 616c-15 -75 -44 -110 -97 -110c-11 0 -23 2 -34 5l-41 12c-11 3 -21 5 -31 5c-22 0 -35 -11 -42 -33h-49
c13 72 44 107 94 107c11 0 25 -2 41 -7l43 -12c8 -2 16 -3 25 -3c20 0 36 12 42 36h49z" />
    <glyph glyph-name="plusminus" unicode="&#xb1;" horiz-adv-x="833" 
d="M451 582v-166h258v-68h-258v-166h-69v166h-258v68h258v166h69zM709 83v-69h-585v69h585z" />
    <glyph glyph-name="registered" unicode="&#xae;" horiz-adv-x="833" 
d="M416 715c98 0 188 -37 257 -107c66 -67 104 -157 104 -253c0 -99 -37 -187 -105 -253c-71 -69 -162 -107 -256 -107c-96 0 -185 38 -254 108c-68 69 -105 157 -105 252s39 187 109 258c66 67 153 102 250 102zM729 352c0 87 -31 165 -89 223c-60 61 -137 93 -223 93
c-84 0 -161 -31 -218 -89c-61 -62 -95 -142 -95 -224s33 -159 92 -219s138 -93 218 -93c85 0 162 32 224 92c59 57 91 134 91 217zM426 566c114 0 170 -38 170 -112c0 -58 -34 -98 -93 -110l91 -186h-86l-83 174h-76v-174h-77v408h154zM412 516h-63v-135h65
c70 0 103 17 103 65c0 50 -33 70 -105 70z" />
    <glyph glyph-name="scaron" unicode="&#x161;" horiz-adv-x="663" 
d="M485 347h-291v-89h275c84 0 110 -20 110 -100v-58c0 -79 -26 -100 -110 -100h-274c-85 0 -112 21 -112 100v12l92 17v-50h311v97h-274c-83 0 -111 20 -111 100v47c0 80 28 100 111 100h251c78 0 111 -18 111 -92v-10l-89 -19v45zM187 647h63l82 -102l81 102h64l-92 -170
h-106z" />
    <glyph glyph-name="threequarters" unicode="&#xbe;" horiz-adv-x="1141" 
d="M144 227c-56 0 -75 11 -75 57v23l67 12v-40h175c25 0 32 5 32 26v21c0 21 -7 26 -32 26h-109v47h97c25 0 31 6 31 27v14c0 21 -6 27 -31 27h-160v-36l-65 10v18c0 46 19 57 75 57h175c56 0 75 -11 75 -57v-26c0 -34 -17 -48 -63 -55c51 -4 75 -22 75 -59v-30
c0 -45 -16 -62 -78 -62h-189zM820 532l-435 -548h-65l436 548h64zM951 112v129l-177 -129h177zM951 -3v67h-246v48l244 180h71v-180h79v-48h-79v-67h-69z" />
    <glyph glyph-name="threesuperior" unicode="&#xb3;" horiz-adv-x="510" 
d="M150 206c-58 0 -77 11 -77 61v25l70 13v-43h183c26 0 33 5 33 27v23c0 22 -7 28 -33 28h-115v51h103c26 0 32 6 32 28v16c0 22 -6 28 -32 28h-169v-39l-67 12v19c0 49 20 61 78 61h184c58 0 78 -12 78 -61v-28c0 -37 -17 -52 -66 -59c54 -5 79 -24 79 -63v-32
c0 -48 -17 -67 -83 -67h-198z" />
    <glyph glyph-name="trademark" unicode="&#x2122;" horiz-adv-x="833" 
d="M339 712v-39h-84v-224h-53v224h-84v39h221zM470 712l74 -188l69 188h73v-263h-48v217l-81 -217h-27l-85 217v-217h-48v263h73z" />
    <glyph glyph-name="twosuperior" unicode="&#xb2;" horiz-adv-x="510" 
d="M92 455c0 49 20 61 78 61h175c58 0 78 -12 78 -61v-20c0 -36 -12 -45 -44 -63l-200 -110h198v45l63 -16v-24c0 -50 -20 -61 -78 -61h-287v28c0 21 3 34 43 57l236 132v40h-194v-64l-68 16v40z" />
    <glyph glyph-name="uacute" unicode="&#xfa;" horiz-adv-x="689" 
d="M197 423v-344h294v344h104v-323c0 -79 -27 -100 -111 -100h-280c-84 0 -110 21 -110 100v323h103zM273 478l100 169h108l-144 -169h-64z" />
    <glyph glyph-name="ucircumflex" unicode="&#xfb;" horiz-adv-x="689" 
d="M197 423v-344h294v344h104v-323c0 -79 -27 -100 -111 -100h-280c-84 0 -110 21 -110 100v323h103zM200 477l92 170h106l92 -170h-64l-81 103l-82 -103h-63z" />
    <glyph glyph-name="udieresis" unicode="&#xfc;" horiz-adv-x="689" 
d="M197 423v-344h294v344h104v-323c0 -79 -27 -100 -111 -100h-280c-84 0 -110 21 -110 100v323h103zM212 501v112h100v-112h-100zM378 501v112h100v-112h-100z" />
    <glyph glyph-name="ugrave" unicode="&#xf9;" horiz-adv-x="689" 
d="M197 423v-344h294v344h104v-323c0 -79 -27 -100 -111 -100h-280c-84 0 -110 21 -110 100v323h103zM417 478h-64l-144 169h108z" />
    <glyph glyph-name="yacute" unicode="&#xfd;" horiz-adv-x="593" 
d="M254 0v190l-231 233h139l151 -158l153 158h121l-230 -231v-192h-103zM225 478l100 169h108l-144 -169h-64z" />
    <glyph glyph-name="ydieresis" unicode="&#xff;" horiz-adv-x="593" 
d="M254 0v190l-231 233h139l151 -158l153 158h121l-230 -231v-192h-103zM164 501v112h100v-112h-100zM330 501v112h100v-112h-100z" />
    <glyph glyph-name="zcaron" unicode="&#x17e;" horiz-adv-x="616" 
d="M70 0v46l310 301h-279v76h446v-42l-316 -303h316v-78h-477zM163 647h63l82 -102l81 102h64l-92 -170h-106z" />
    </font>
</defs>
</svg>
